<svg id="Ebene_1" data-name="Ebene 1" xmlns="http://www.w3.org/2000/svg" viewBox="0 0 224.38 57"><defs><style>.cls-1{fill:#703864;}</style></defs><path class="cls-1" d="M210.56,34.87a4.45,4.45,0,0,0-.73-.71,7.57,7.57,0,0,0-.76-.53.27.27,0,0,1-.1-.21.23.23,0,0,1,.1-.19,3.69,3.69,0,0,0,.67-.49,4,4,0,0,0,.6-.69,3.7,3.7,0,0,0,.43-.84,2.94,2.94,0,0,0,.16-.94,3.39,3.39,0,0,0-.34-1.51,3.62,3.62,0,0,0-.92-1.14,4.09,4.09,0,0,0-1.35-.73,5.52,5.52,0,0,0-1.64-.25,4.25,4.25,0,0,0-1.53.28,6.28,6.28,0,0,0-1.19.62,5.46,5.46,0,0,0-1,.87.38.38,0,0,0-.09.18.21.21,0,0,0,.07.18l1,.94a.4.4,0,0,0,.22.06.21.21,0,0,0,.17-.06,3.75,3.75,0,0,1,.79-.67,2.46,2.46,0,0,1,1.37-.35,2.25,2.25,0,0,1,.78.14,2,2,0,0,1,.66.41,2.14,2.14,0,0,1,.46.64,1.91,1.91,0,0,1,.17.8,1.79,1.79,0,0,1-.66,1.41,3,3,0,0,1-2,.57h-1.14c-.2,0-.3.1-.3.32v1.27c0,.21.1.32.3.32h1.14a3.94,3.94,0,0,1,1.25.17,2.75,2.75,0,0,1,.92.47,2,2,0,0,1,.57.67,1.87,1.87,0,0,1,.18.8,1.9,1.9,0,0,1-.18.83,2.21,2.21,0,0,1-.51.63,2.47,2.47,0,0,1-1.58.57,2.73,2.73,0,0,1-.93-.17,5.08,5.08,0,0,1-1.4-.77,1.09,1.09,0,0,1-.25-.21v0a.28.28,0,0,0-.4,0l-1,1a.4.4,0,0,0-.07.19.21.21,0,0,0,.07.17,6.66,6.66,0,0,0,.48.5,4.13,4.13,0,0,0,.83.58,5,5,0,0,0,1.21.49,5.8,5.8,0,0,0,1.64.2,5.68,5.68,0,0,0,1.89-.29,4.42,4.42,0,0,0,1.45-.8,3.68,3.68,0,0,0,.94-1.24,3.8,3.8,0,0,0,.32-1.55,2.75,2.75,0,0,0-.2-1.09A3.59,3.59,0,0,0,210.56,34.87Z" transform="translate(-8.31 -7)"/><path class="cls-1" d="M220.78,32.92a4,4,0,0,0-3.85-1,6.5,6.5,0,0,0-1,.33.17.17,0,0,1-.25,0,.21.21,0,0,1,0-.28,4.81,4.81,0,0,1,.94-1.46,7.78,7.78,0,0,1,1.28-1.12,9.88,9.88,0,0,1,1.27-.76,5.93,5.93,0,0,1,.95-.38c.28-.1.37-.25.3-.46s-.21-.52-.27-.68l-.14-.36a.52.52,0,0,1-.06-.14s0,0,0,0a.31.31,0,0,0-.42-.2c-.27.08-.62.22-1.05.4a9.49,9.49,0,0,0-1.39.77,11.76,11.76,0,0,0-1.51,1.18,8.32,8.32,0,0,0-1.39,1.65,8.61,8.61,0,0,0-1,2.14,8.52,8.52,0,0,0-.39,2.67,7.39,7.39,0,0,0,.3,2.12,5.22,5.22,0,0,0,.89,1.76,4.31,4.31,0,0,0,1.5,1.2,4.51,4.51,0,0,0,2.07.45,4.22,4.22,0,0,0,1.73-.36,4.55,4.55,0,0,0,1.43-1,4.62,4.62,0,0,0,1-1.47,4.38,4.38,0,0,0,.36-1.77,4.79,4.79,0,0,0-.35-1.89A3.78,3.78,0,0,0,220.78,32.92Zm-.95,4.2a2.78,2.78,0,0,1-.53.77,2.16,2.16,0,0,1-.79.53,2.37,2.37,0,0,1-.95.19,2.4,2.4,0,0,1-1-.19,2.21,2.21,0,0,1-.78-.53,2.75,2.75,0,0,1-.52-.77,2.17,2.17,0,0,1-.2-1,2.2,2.2,0,0,1,.2-1,2.85,2.85,0,0,1,.52-.79,2.35,2.35,0,0,1,.78-.53,2.52,2.52,0,0,1,1.92,0,2.29,2.29,0,0,1,.79.53,2.88,2.88,0,0,1,.53.79,2.36,2.36,0,0,1,.2,1A2.32,2.32,0,0,1,219.83,37.12Z" transform="translate(-8.31 -7)"/><path class="cls-1" d="M232.37,34.34a3.84,3.84,0,0,0-.9-1.4A4.07,4.07,0,0,0,230,32a5.22,5.22,0,0,0-1.92-.33H226.5a.25.25,0,0,1-.17-.06.19.19,0,0,1-.07-.16V29a.2.2,0,0,1,.07-.16.25.25,0,0,1,.17-.06h4.4a.25.25,0,0,0,.2-.09.29.29,0,0,0,.08-.19V27.1a.29.29,0,0,0-.08-.19.25.25,0,0,0-.2-.09h-6.45a.29.29,0,0,0-.21.09.26.26,0,0,0-.09.19v6a.73.73,0,0,0,.14.42.43.43,0,0,0,.4.2h3.14a3,3,0,0,1,1.11.19,2.39,2.39,0,0,1,.8.51,2,2,0,0,1,.49.76,2.4,2.4,0,0,1,.17.93,2.64,2.64,0,0,1-.18,1,2.34,2.34,0,0,1-.51.79,2.44,2.44,0,0,1-.78.55,2.39,2.39,0,0,1-1,.21,3.37,3.37,0,0,1-1.5-.35,4.65,4.65,0,0,1-1.21-.84.17.17,0,0,0-.18-.05.56.56,0,0,0-.17.09l-1,1a.39.39,0,0,0-.12.27.78.78,0,0,0,.16.29,4.33,4.33,0,0,0,1.35,1.05,5.1,5.1,0,0,0,1.14.43,5.35,5.35,0,0,0,1.45.17,5,5,0,0,0,1.92-.36,4.61,4.61,0,0,0,1.54-1,4.5,4.5,0,0,0,1-1.46,4.18,4.18,0,0,0,.37-1.76A4.8,4.8,0,0,0,232.37,34.34Z" transform="translate(-8.31 -7)"/><path class="cls-1" d="M83.08,22.77H69.33a.47.47,0,0,0-.35.15.53.53,0,0,0-.14.34V46.82a.51.51,0,0,0,.14.33.44.44,0,0,0,.35.16H83.08a.44.44,0,0,0,.35-.16.51.51,0,0,0,.14-.33V43.91a.56.56,0,0,0-.14-.35.44.44,0,0,0-.35-.18H73.26a.19.19,0,0,1-.21-.21V37a.19.19,0,0,1,.21-.21h8.1a.49.49,0,0,0,.33-.14.45.45,0,0,0,.16-.36v-3a.56.56,0,0,0-.49-.49h-8.1a.19.19,0,0,1-.21-.21V26.9a.19.19,0,0,1,.21-.21h9.82a.43.43,0,0,0,.35-.17.6.6,0,0,0,.14-.35V23.26a.53.53,0,0,0-.14-.34A.47.47,0,0,0,83.08,22.77Z" transform="translate(-8.31 -7)"/><path class="cls-1" d="M157.31,43.38h-9.75a.19.19,0,0,1-.21-.21V23.26a.47.47,0,0,0-.16-.34.46.46,0,0,0-.33-.15h-3.22a.45.45,0,0,0-.35.15.48.48,0,0,0-.14.34V46.82a.46.46,0,0,0,.14.33.43.43,0,0,0,.35.16h13.67a.43.43,0,0,0,.35-.16.51.51,0,0,0,.14-.33V43.91a.56.56,0,0,0-.14-.35A.42.42,0,0,0,157.31,43.38Z" transform="translate(-8.31 -7)"/><path class="cls-1" d="M194.53,32.54a7.65,7.65,0,0,0-2.71-1.83,8.63,8.63,0,0,0-3.28-.63,8.07,8.07,0,0,0-3.26.68,8.57,8.57,0,0,0-4.5,4.59,8.65,8.65,0,0,0-.66,3.37,8.32,8.32,0,0,0,.68,3.35,9.21,9.21,0,0,0,1.83,2.73,8.09,8.09,0,0,0,.76.67l0,0a6.51,6.51,0,0,0,.6.43l.22.14a4.25,4.25,0,0,0,.46.27l.09,0,.21.1a3.59,3.59,0,0,0,.34.17.94.94,0,0,0,.15.06l.16.06a9,9,0,0,0,2.41.58h.08l.48,0h.47a9.32,9.32,0,0,0,2.74-.49c.24-.1.32-.24.25-.43l-1-2.66s0,0-.05-.07a1.52,1.52,0,0,0-.38-.38.74.74,0,0,0-.61,0,5.23,5.23,0,0,1-3.19-.12A6.15,6.15,0,0,1,185,42a3.69,3.69,0,0,1-.54-.84,3.18,3.18,0,0,1-.27-.68v0a.09.09,0,0,1,.07,0h6.42l5.59,0c.24,0,.39-.05.46-.15a.79.79,0,0,0,.11-.5,11.66,11.66,0,0,0-.55-4.16A8.15,8.15,0,0,0,194.53,32.54ZM193,36.86s0,0-.11,0h-8.39a.11.11,0,0,1-.07,0v-.11q.07-.21.3-.75a4.23,4.23,0,0,1,.72-1.08,4.62,4.62,0,0,1,1.25-1,4.06,4.06,0,0,1,1.89-.41,4.48,4.48,0,0,1,1.84.34,4.35,4.35,0,0,1,1.29.83,4,4,0,0,1,.83,1,10.78,10.78,0,0,1,.48,1A.18.18,0,0,1,193,36.86Z" transform="translate(-8.31 -7)"/><path class="cls-1" d="M102.93,30.12h-2.59a.81.81,0,0,0-.62.29.9.9,0,0,0-.27.64c0,.26-.08.42-.23.47s-.32,0-.49-.22a6.52,6.52,0,0,0-3.12-1.18,8.37,8.37,0,0,0-3.3.3,9.21,9.21,0,0,0-3,1.56,7.94,7.94,0,0,0-2.15,2.58,8.89,8.89,0,0,0-1,3.52,8.58,8.58,0,0,0,.41,3.33,8.42,8.42,0,0,0,1.61,2.87,8.79,8.79,0,0,0,2.58,2.08,8.93,8.93,0,0,0,3.3,1,9.17,9.17,0,0,0,3.75-.47c.23-.1.32-.24.25-.43l-1-2.65a1.43,1.43,0,0,0-.43-.45.67.67,0,0,0-.61,0,3.94,3.94,0,0,1-2.74-.13,4.86,4.86,0,0,1-2.06-1.65,5.42,5.42,0,0,1-1-2.47,3.9,3.9,0,0,1,.52-2.6A4.44,4.44,0,0,1,92,35.05a4.93,4.93,0,0,1,1.6-.81A4.83,4.83,0,0,1,99,36.37a5.36,5.36,0,0,1,.64,2.75v.36c0,.21,0,.49,0,.84s0,.73,0,1.14v4.72a.82.82,0,0,0,.27.64.92.92,0,0,0,.66.25h2.37a.92.92,0,0,0,.66-.25.82.82,0,0,0,.27-.64V31.05a.9.9,0,0,0-.27-.64A.84.84,0,0,0,102.93,30.12Z" transform="translate(-8.31 -7)"/><path class="cls-1" d="M118.93,38a8,8,0,0,0-2.24-.89c-.86-.22-1.79-.41-2.8-.58A10,10,0,0,1,111.8,36a.88.88,0,0,1-.52-.86,1.81,1.81,0,0,1,.07-.49,1,1,0,0,1,.3-.48,1.55,1.55,0,0,1,.67-.32,3.87,3.87,0,0,1,1.14-.07,4.91,4.91,0,0,1,1.55.3,2,2,0,0,1,1,.7,1.74,1.74,0,0,0,.38.29.83.83,0,0,0,.41.1h2.58a1,1,0,0,0,.43-.1.62.62,0,0,0,.29-.29.86.86,0,0,0,.14-.75,6.33,6.33,0,0,0-2.55-3A7.83,7.83,0,0,0,113.46,30a7.62,7.62,0,0,0-2.77.46,6.46,6.46,0,0,0-2,1.22,5.09,5.09,0,0,0-1.25,1.7,4.61,4.61,0,0,0-.43,1.92,3.67,3.67,0,0,0,.64,2.24,5,5,0,0,0,1.61,1.42,8.3,8.3,0,0,0,2.08.8q1.11.27,2,.42c.69.12,1.27.23,1.72.34a3.89,3.89,0,0,1,1.06.37,1.16,1.16,0,0,1,.66,1.11,1.11,1.11,0,0,1-.77,1,4.81,4.81,0,0,1-2,.36,4.32,4.32,0,0,1-1.62-.32,3.16,3.16,0,0,1-1.43-1.22.93.93,0,0,0-.72-.32h-2.54a.76.76,0,0,0-.68.32.66.66,0,0,0-.11.79,6.66,6.66,0,0,0,1,1.94A6.43,6.43,0,0,0,109.47,46a7.36,7.36,0,0,0,2,.89,8.2,8.2,0,0,0,2.28.31,10,10,0,0,0,2.94-.41A7.6,7.6,0,0,0,119,45.68a5.11,5.11,0,0,0,1.47-1.74,4.89,4.89,0,0,0,.52-2.21,4,4,0,0,0-2-3.69Z" transform="translate(-8.31 -7)"/><path class="cls-1" d="M164,30.12h-2.47a.73.73,0,0,0-.58.29,1,1,0,0,0-.25.68V46.21a.85.85,0,0,0,.25.61.79.79,0,0,0,.58.25H164a.88.88,0,0,0,.65-.25.85.85,0,0,0,.25-.61V31.09a1,1,0,0,0-.25-.68A.81.81,0,0,0,164,30.12Z" transform="translate(-8.31 -7)"/><path class="cls-1" d="M164,24h-2.47a.83.83,0,0,0-.58.25.92.92,0,0,0-.25.65v2.51a.81.81,0,0,0,.25.57.79.79,0,0,0,.58.25H164a.88.88,0,0,0,.65-.25.81.81,0,0,0,.25-.57V24.85A.8.8,0,0,0,164,24Z" transform="translate(-8.31 -7)"/><path class="cls-1" d="M138.52,30.12H136a.73.73,0,0,0-.63.29,1,1,0,0,0-.23.68v8.35a3.76,3.76,0,0,1-.92,2.62,3,3,0,0,1-2.31,1,3,3,0,0,1-1.47-.32,2.83,2.83,0,0,1-.91-.79,3.05,3.05,0,0,1-.49-1,3.77,3.77,0,0,1-.14-1V31.09a.94.94,0,0,0-.27-.68.78.78,0,0,0-.59-.29h-2.44a.81.81,0,0,0-.63.29.94.94,0,0,0-.27.68v8.74a9.89,9.89,0,0,0,.43,3,6.68,6.68,0,0,0,1.24,2.3,5.65,5.65,0,0,0,2,1.47,6.33,6.33,0,0,0,2.59.51,5.79,5.79,0,0,0,2-.39,3.79,3.79,0,0,0,1.7-1.22.51.51,0,0,1,.39-.21.28.28,0,0,1,.29.21v3.16a4.74,4.74,0,0,1,0,.65,3.89,3.89,0,0,1-.12.49A5.92,5.92,0,0,1,134,51.67a5.23,5.23,0,0,1-2.81,1.52.72.72,0,0,0-.44.23s-.06,0-.08.08a1.41,1.41,0,0,0-.17.5.29.29,0,0,0,0,.09l.29,2.81a.3.3,0,0,0,.1.2.42.42,0,0,0,.32.08,12.67,12.67,0,0,0,3.21-.75,8.52,8.52,0,0,0,2.74-1.77,7.59,7.59,0,0,0,1.7-2.51,8.27,8.27,0,0,0,.63-2.92V31.09a1,1,0,0,0-.25-.68A.81.81,0,0,0,138.52,30.12Z" transform="translate(-8.31 -7)"/><path class="cls-1" d="M178.47,30.23h-4.16c0-.26,0-.5,0-.74a3.74,3.74,0,0,1,.12-.45,5.93,5.93,0,0,1,1.13-1.92,5.28,5.28,0,0,1,2.82-1.51.72.72,0,0,0,.43-.23s.07-.05.09-.09h0a1.3,1.3,0,0,0,.17-.49.29.29,0,0,0,0-.09l-.29-2.81a.35.35,0,0,0-.06-.14.21.21,0,0,0,0-.06.44.44,0,0,0-.32-.07,13.18,13.18,0,0,0-3.21.74,8.6,8.6,0,0,0-2.74,1.78,7.49,7.49,0,0,0-1.7,2.51,7.82,7.82,0,0,0-.63,2.92v.66h-1.5a.83.83,0,0,0-.61.23.81.81,0,0,0-.26.63v2a.83.83,0,0,0,.26.61.81.81,0,0,0,.61.25h1.5V46.21a.79.79,0,0,0,.25.63.89.89,0,0,0,.65.23h2.43a.83.83,0,0,0,.61-.23.79.79,0,0,0,.25-.63V34h4.16a.87.87,0,0,0,.65-.25.82.82,0,0,0,.25-.61v-2a.81.81,0,0,0-.25-.63A.89.89,0,0,0,178.47,30.23Z" transform="translate(-8.31 -7)"/><path class="cls-1" d="M32.88,7,8.31,21.12V50L32.88,64l24.6-14.07V21.11Zm7.83,19.52a.6.6,0,0,1-.14.35.44.44,0,0,1-.35.17H30.4a.19.19,0,0,0-.21.21V33a.19.19,0,0,0,.21.21h8.1a.56.56,0,0,1,.49.49v3a.43.43,0,0,1-.16.35.45.45,0,0,1-.33.14H30.4a.19.19,0,0,0-.21.21v6.14a.19.19,0,0,0,.21.21h9.82a.42.42,0,0,1,.35.18.56.56,0,0,1,.14.35v2.91a.53.53,0,0,1-.14.33.46.46,0,0,1-.35.16H26.48a.48.48,0,0,1-.36-.16.53.53,0,0,1-.14-.33V23.61a.53.53,0,0,1,.14-.34.48.48,0,0,1,.36-.15H40.22a.45.45,0,0,1,.35.15.53.53,0,0,1,.14.34Z" transform="translate(-8.31 -7)"/></svg>